<?xml version="1.0" encoding="UTF-8" standalone="no"?>
<svg
   width="824"
   height="824"
   viewBox="0 0 824 824"
   fill="none"
   version="1.1"
   id="svg4"
   sodipodi:docname="Fuji Icon New.svg"
   xml:space="preserve"
   inkscape:version="1.3 (0e150ed, 2023-07-21)"
   xmlns:inkscape="http://www.inkscape.org/namespaces/inkscape"
   xmlns:sodipodi="http://sodipodi.sourceforge.net/DTD/sodipodi-0.dtd"
   xmlns="http://www.w3.org/2000/svg"
   xmlns:svg="http://www.w3.org/2000/svg"><sodipodi:namedview
     id="namedview4"
     pagecolor="#ffffff"
     bordercolor="#000000"
     borderopacity="0.25"
     inkscape:showpageshadow="2"
     inkscape:pageopacity="0.0"
     inkscape:pagecheckerboard="0"
     inkscape:deskcolor="#d1d1d1"
     inkscape:zoom="0.62462373"
     inkscape:cx="668.4024"
     inkscape:cy="520.31325"
     inkscape:window-width="1712"
     inkscape:window-height="951"
     inkscape:window-x="0"
     inkscape:window-y="39"
     inkscape:window-maximized="0"
     inkscape:current-layer="layer1" /><defs
     id="defs4"><filter
       style="color-interpolation-filters:sRGB"
       inkscape:label="Drop Shadow"
       id="filter14"
       x="-0.038548023"
       y="-0.049164343"
       width="1.0833318"
       height="1.1062817"><feFlood
         result="flood"
         in="SourceGraphic"
         flood-opacity="0.345098"
         flood-color="rgb(0,0,0)"
         id="feFlood13" /><feGaussianBlur
         result="blur"
         in="SourceGraphic"
         stdDeviation="10.303030"
         id="feGaussianBlur13" /><feOffset
         result="offset"
         in="blur"
         dx="4.000000"
         dy="4.000000"
         id="feOffset13" /><feComposite
         result="comp1"
         operator="in"
         in="flood"
         in2="offset"
         id="feComposite13" /><feComposite
         result="comp2"
         operator="over"
         in="SourceGraphic"
         in2="comp1"
         id="feComposite14" /></filter></defs><g
     inkscape:groupmode="layer"
     id="layer1"
     inkscape:label="Icon Final"
     inkscape:export-filename="fujiIcon.png"
     inkscape:export-xdpi="300"
     inkscape:export-ydpi="300"
     transform="translate(-100,-100)"><rect
       x="100"
       y="100"
       width="824"
       height="824"
       fill="#ffffff"
       id="rect2"
       style="display:inline;fill:#5773b0;fill-opacity:1"
       inkscape:label="Background"
       rx="184" /><path
       fill="#000000"
       d="m 796.43787,585.70201 h -65.9244 c -2.9629,-17.03665 -17.77738,-29.62895 -35.55474,-29.62895 h -18.51809 c 0,0 -11.11085,-19.25882 -11.11085,-19.25882 l -35.55475,-61.48006 c 55.55427,-4.44433 98.51625,-51.10992 98.51625,-107.40493 0,-59.25789 -48.14703,-107.40492 -107.40492,-107.40492 -59.25789,0 -107.40493,48.14703 -107.40493,107.40492 0,8.8887 0.74072,17.03665 2.9629,25.18461 h -40.73981 c -19.25881,0 -37.03617,10.37013 -46.66559,26.66605 l -14.81446,25.1846 h -37.03617 c -17.77738,0 -33.33257,13.33303 -36.29548,30.36967 H 305.3381 c -19.99954,0 -37.03619,16.29592 -37.03619,37.03618 0,19.99955 16.29592,37.03618 37.03619,37.03618 h 48.88776 l -26.66606,43.70269 h -99.25696 c -19.99953,0 -37.03618,16.29593 -37.03618,37.03619 0,19.99954 16.29592,37.03618 37.03618,37.03618 h 57.03572 l -28.1475,48.14703 c -5.92578,10.37013 -5.92578,22.22171 0,31.85112 5.92579,9.62941 16.29592,16.29592 27.40677,16.29592 h 454.80431 c 11.85158,0 22.22173,-5.92578 27.40678,-16.29592 5.92579,-10.37014 5.92579,-22.22171 0,-31.85112 l -31.11039,-55.55427 h 60.73935 c 19.99954,0 36.29546,-16.29592 36.29546,-36.29545 v -0.74073 c 0,-20.74025 -16.29592,-37.03617 -36.29547,-37.03617 z M 303.85665,527.92555 c -8.14794,0 -15.55519,-6.66651 -15.55519,-15.55519 v 0 c 0,-8.14796 6.66651,-15.55519 15.55519,-15.55519 h 41.48052 c 8.14796,0 15.55521,-6.66652 15.55521,-15.5552 0,-4.44434 1.48144,-8.14796 4.44433,-11.11085 2.96289,-2.9629 6.66652,-4.44435 11.11086,-4.44435 h 24.44388 l -35.55474,60.73935 H 303.85665 Z M 372.00323,644.9599 H 228.30284 c -8.14796,0 -15.5552,-6.66652 -15.5552,-15.55521 0,-8.14795 6.66651,-15.55519 15.5552,-15.55519 h 143.70039 c 8.14795,0 15.5552,6.66652 15.5552,15.55519 0,8.88869 -7.40725,15.55521 -15.5552,15.55521 z m 82.96105,-109.62711 -33.33257,8.88869 c -8.14796,2.22216 -16.29592,1.48145 -23.70316,-1.48144 l -13.33301,-5.18507 61.48005,-106.66421 c 5.9258,-9.62941 16.29593,-16.29593 28.14751,-16.29593 h 75.5538 c 11.85159,0 22.22171,5.9258 28.14751,16.29593 l 60.73934,105.92348 -17.77736,5.9258 c -7.40726,2.22216 -15.55519,2.96289 -22.96244,0 l -22.96243,-7.40725 c -8.14796,-2.22217 -16.29591,-2.22217 -23.70315,0.74073 l -25.18462,9.62941 c -8.88868,2.96289 -18.5181,2.96289 -26.66604,-0.74073 l -20.74028,-8.88868 c -7.40724,-2.9629 -15.55518,-2.9629 -23.70315,-0.74073 z m 356.28807,88.14612 c 0,8.14796 -6.66651,14.81447 -14.81448,14.81447 H 651.25603 c -8.14795,0 -14.81446,-6.66651 -14.81446,-14.81447 0,-8.14796 -6.66652,-14.81447 -14.81449,-14.81447 h -72.59091 c -8.14795,0 -14.81447,-6.66651 -14.81447,-14.81448 v -0.74073 c 0,-8.14795 6.66652,-14.81447 14.81447,-14.81447 H 694.218 c 8.14798,0 14.81448,6.66652 14.81448,14.81447 v 0 c 0,8.14797 6.6665,14.81448 14.81448,14.81448 h 72.59091 c 8.14796,0 14.81448,6.66652 14.81448,14.81447 z"
       id="path1"
       style="fill:#dde4ee;fill-opacity:1;stroke-width:7.40724;filter:url(#filter14)"
       inkscape:label="Fuji" /></g></svg>
